<svg xmlns="http://www.w3.org/2000/svg" viewBox="0 0 512 512" width="512" height="512">
<rect width="512" height="512" rx="102" fill="#0A1628"/>

<circle cx="256" cy="256" r="56" fill="#0EA5E9" opacity="0.1"/>
<circle cx="256" cy="256" r="112" fill="none" stroke="#0EA5E9" stroke-width="3" opacity="0.12"/>
<circle cx="256" cy="256" r="160" fill="none" stroke="#0EA5E9" stroke-width="2" opacity="0.07"/>

<circle cx="256" cy="256" r="20" fill="#0EA5E9"/>
<circle cx="256" cy="256" r="33" fill="none" stroke="#0EA5E9" stroke-width="5" opacity="0.5"/>

<line x1="276" y1="240" x2="370" y2="160" stroke="#0EA5E9" stroke-width="3.5" opacity="0.45"/>
<circle cx="378" cy="154" r="14" fill="#06B6D4"/>
<circle cx="378" cy="154" r="24" fill="none" stroke="#06B6D4" stroke-width="2.5" opacity="0.3"/>

<line x1="276" y1="272" x2="380" y2="340" stroke="#0EA5E9" stroke-width="3.5" opacity="0.45"/>
<circle cx="386" cy="346" r="12" fill="#06B6D4"/>
<circle cx="386" cy="346" r="22" fill="none" stroke="#06B6D4" stroke-width="2.5" opacity="0.3"/>

<line x1="236" y1="240" x2="148" y2="160" stroke="#0EA5E9" stroke-width="3.5" opacity="0.45"/>
<circle cx="140" cy="154" r="14" fill="#22D3EE"/>
<circle cx="140" cy="154" r="24" fill="none" stroke="#22D3EE" stroke-width="2.5" opacity="0.3"/>

<line x1="236" y1="272" x2="138" y2="346" stroke="#0EA5E9" stroke-width="3.5" opacity="0.45"/>
<circle cx="132" cy="350" r="11" fill="#22D3EE"/>
<circle cx="132" cy="350" r="20" fill="none" stroke="#22D3EE" stroke-width="2.5" opacity="0.3"/>

<line x1="256" y1="230" x2="256" y2="120" stroke="#0EA5E9" stroke-width="3.5" opacity="0.45"/>
<circle cx="256" cy="110" r="12" fill="#38BDF8"/>
<circle cx="256" cy="110" r="22" fill="none" stroke="#38BDF8" stroke-width="2.5" opacity="0.3"/>

<line x1="256" y1="282" x2="256" y2="392" stroke="#0EA5E9" stroke-width="3.5" opacity="0.45"/>
<circle cx="256" cy="400" r="12" fill="#38BDF8"/>
<circle cx="256" cy="400" r="22" fill="none" stroke="#38BDF8" stroke-width="2.5" opacity="0.3"/>

<line x1="378" y1="168" x2="420" y2="230" stroke="#06B6D4" stroke-width="2" opacity="0.2"/>
<circle cx="424" cy="236" r="6" fill="#0EA5E9" opacity="0.4"/>

<line x1="140" y1="168" x2="100" y2="230" stroke="#22D3EE" stroke-width="2" opacity="0.2"/>
<circle cx="96" cy="236" r="6" fill="#22D3EE" opacity="0.4"/>
</svg>
